<mxfile host="embed.diagrams.net" agent="Mozilla/5.0 (Macintosh; Intel Mac OS X 10.15; rv:139.0) Gecko/20100101 Firefox/139.0" version="27.2.0">
  <diagram id="C5RBs43oDa-KdzZeNtuy" name="Page-1">
    <mxGraphModel grid="1" page="1" gridSize="10" guides="1" tooltips="1" connect="1" arrows="1" fold="1" pageScale="1" pageWidth="827" pageHeight="1169" math="0" shadow="0">
      <root>
        <mxCell id="WIyWlLk6GJQsqaUBKTNV-0" />
        <mxCell id="WIyWlLk6GJQsqaUBKTNV-1" parent="WIyWlLk6GJQsqaUBKTNV-0" />
        <mxCell id="42rpb_rlg_OGguBjn2RC-8" style="edgeStyle=orthogonalEdgeStyle;rounded=1;orthogonalLoop=1;jettySize=auto;html=1;endArrow=block;endFill=1;curved=0;fontFamily=Verdana;" edge="1" parent="WIyWlLk6GJQsqaUBKTNV-1" source="42rpb_rlg_OGguBjn2RC-0" target="42rpb_rlg_OGguBjn2RC-1">
          <mxGeometry relative="1" as="geometry" />
        </mxCell>
        <mxCell id="42rpb_rlg_OGguBjn2RC-0" value="Start" style="ellipse;whiteSpace=wrap;html=1;aspect=fixed;fontFamily=Verdana;" vertex="1" parent="WIyWlLk6GJQsqaUBKTNV-1">
          <mxGeometry x="-810" y="20" width="40" height="40" as="geometry" />
        </mxCell>
        <mxCell id="42rpb_rlg_OGguBjn2RC-4" value="" style="edgeStyle=orthogonalEdgeStyle;rounded=1;orthogonalLoop=1;jettySize=auto;html=1;endArrow=block;endFill=1;curved=0;fontFamily=Verdana;" edge="1" parent="WIyWlLk6GJQsqaUBKTNV-1" source="42rpb_rlg_OGguBjn2RC-1" target="42rpb_rlg_OGguBjn2RC-3">
          <mxGeometry relative="1" as="geometry" />
        </mxCell>
        <mxCell id="42rpb_rlg_OGguBjn2RC-1" value="Initialisation de la partie" style="rounded=1;whiteSpace=wrap;fontFamily=Verdana;html=1;" vertex="1" parent="WIyWlLk6GJQsqaUBKTNV-1">
          <mxGeometry x="-730" y="10" width="120" height="60" as="geometry" />
        </mxCell>
        <mxCell id="42rpb_rlg_OGguBjn2RC-7" value="" style="edgeStyle=orthogonalEdgeStyle;rounded=1;orthogonalLoop=1;jettySize=auto;html=1;endArrow=block;endFill=1;curved=0;fontFamily=Verdana;" edge="1" parent="WIyWlLk6GJQsqaUBKTNV-1" source="42rpb_rlg_OGguBjn2RC-3" target="42rpb_rlg_OGguBjn2RC-6">
          <mxGeometry relative="1" as="geometry" />
        </mxCell>
        <mxCell id="42rpb_rlg_OGguBjn2RC-3" value="Nouvelle Manche" style="whiteSpace=wrap;rounded=1;fontFamily=Verdana;html=1;" vertex="1" parent="WIyWlLk6GJQsqaUBKTNV-1">
          <mxGeometry x="-570" y="10" width="120" height="60" as="geometry" />
        </mxCell>
        <mxCell id="42rpb_rlg_OGguBjn2RC-11" value="" style="edgeStyle=orthogonalEdgeStyle;rounded=1;orthogonalLoop=1;jettySize=auto;html=1;endArrow=block;endFill=1;curved=0;fontFamily=Verdana;" edge="1" parent="WIyWlLk6GJQsqaUBKTNV-1" source="42rpb_rlg_OGguBjn2RC-6" target="42rpb_rlg_OGguBjn2RC-10">
          <mxGeometry relative="1" as="geometry" />
        </mxCell>
        <mxCell id="42rpb_rlg_OGguBjn2RC-6" value="Distribution des cartes et blinds" style="whiteSpace=wrap;rounded=1;fontFamily=Verdana;html=1;" vertex="1" parent="WIyWlLk6GJQsqaUBKTNV-1">
          <mxGeometry x="-410" y="10" width="120" height="60" as="geometry" />
        </mxCell>
        <mxCell id="42rpb_rlg_OGguBjn2RC-14" value="" style="edgeStyle=orthogonalEdgeStyle;rounded=1;orthogonalLoop=1;jettySize=auto;html=1;endArrow=block;endFill=1;strokeColor=default;curved=0;fontFamily=Verdana;entryX=0.5;entryY=0;entryDx=0;entryDy=0;" edge="1" parent="WIyWlLk6GJQsqaUBKTNV-1" target="42rpb_rlg_OGguBjn2RC-102">
          <mxGeometry relative="1" as="geometry">
            <mxPoint x="-342" y="140" as="targetPoint" />
            <Array as="points">
              <mxPoint x="-192" y="70" />
              <mxPoint x="-192" y="70" />
            </Array>
            <mxPoint x="-192" y="70" as="sourcePoint" />
          </mxGeometry>
        </mxCell>
        <mxCell id="42rpb_rlg_OGguBjn2RC-10" value="DÃ©but du Tour de Mise" style="whiteSpace=wrap;rounded=1;fontFamily=Verdana;html=1;" vertex="1" parent="WIyWlLk6GJQsqaUBKTNV-1">
          <mxGeometry x="-250" y="10" width="120" height="60" as="geometry" />
        </mxCell>
        <mxCell id="42rpb_rlg_OGguBjn2RC-16" value="" style="edgeStyle=orthogonalEdgeStyle;shape=connector;curved=0;rounded=1;orthogonalLoop=1;jettySize=auto;html=1;strokeColor=default;align=center;verticalAlign=middle;fontFamily=Verdana;fontSize=11;fontColor=default;labelBackgroundColor=default;endArrow=block;endFill=1;horizontal=0;exitX=1;exitY=0.5;exitDx=0;exitDy=0;" edge="1" parent="WIyWlLk6GJQsqaUBKTNV-1" source="42rpb_rlg_OGguBjn2RC-102" target="42rpb_rlg_OGguBjn2RC-15">
          <mxGeometry relative="1" as="geometry">
            <mxPoint x="-207" y="181" as="sourcePoint" />
          </mxGeometry>
        </mxCell>
        <mxCell id="cqLUIpvBRDK-DoJ2rpOq-2" value="&lt;b&gt;&lt;font&gt;NON&lt;/font&gt;&lt;/b&gt;" style="edgeLabel;html=1;align=center;verticalAlign=middle;resizable=0;points=[];fontFamily=Verdana;" connectable="0" vertex="1" parent="42rpb_rlg_OGguBjn2RC-16">
          <mxGeometry x="-0.1077" y="-2" relative="1" as="geometry">
            <mxPoint x="-4" y="-2" as="offset" />
          </mxGeometry>
        </mxCell>
        <mxCell id="42rpb_rlg_OGguBjn2RC-18" value="" style="edgeStyle=orthogonalEdgeStyle;shape=connector;curved=0;rounded=1;orthogonalLoop=1;jettySize=auto;html=1;strokeColor=default;align=center;verticalAlign=middle;fontFamily=Verdana;fontSize=11;fontColor=default;labelBackgroundColor=default;endArrow=block;endFill=1;exitX=0.5;exitY=0;exitDx=0;exitDy=0;entryX=0.5;entryY=1;entryDx=0;entryDy=0;" edge="1" parent="WIyWlLk6GJQsqaUBKTNV-1" source="cqLUIpvBRDK-DoJ2rpOq-12" target="42rpb_rlg_OGguBjn2RC-3">
          <mxGeometry relative="1" as="geometry">
            <mxPoint x="-347" y="211" as="sourcePoint" />
            <mxPoint x="-452" y="290" as="targetPoint" />
          </mxGeometry>
        </mxCell>
        <mxCell id="42rpb_rlg_OGguBjn2RC-19" value="NON" style="edgeLabel;html=1;align=center;verticalAlign=middle;resizable=0;points=[];fontFamily=Verdana;fontSize=11;fontColor=default;labelBackgroundColor=default;fontStyle=1" connectable="0" vertex="1" parent="42rpb_rlg_OGguBjn2RC-18">
          <mxGeometry x="0.3" y="-2" relative="1" as="geometry">
            <mxPoint x="-4" y="215" as="offset" />
          </mxGeometry>
        </mxCell>
        <mxCell id="42rpb_rlg_OGguBjn2RC-23" value="" style="edgeStyle=orthogonalEdgeStyle;shape=connector;curved=0;rounded=1;orthogonalLoop=1;jettySize=auto;html=1;strokeColor=default;align=center;verticalAlign=middle;fontFamily=Verdana;fontSize=11;fontColor=default;labelBackgroundColor=default;endArrow=block;endFill=1;entryX=0;entryY=0.5;entryDx=0;entryDy=0;" edge="1" parent="WIyWlLk6GJQsqaUBKTNV-1" source="42rpb_rlg_OGguBjn2RC-15" target="42rpb_rlg_OGguBjn2RC-67">
          <mxGeometry relative="1" as="geometry">
            <mxPoint x="11.759999999999991" y="180.9999999999999" as="targetPoint" />
          </mxGeometry>
        </mxCell>
        <mxCell id="42rpb_rlg_OGguBjn2RC-15" value="Tour de mise en cours" style="whiteSpace=wrap;rounded=1;fontFamily=Verdana;html=1;" vertex="1" parent="WIyWlLk6GJQsqaUBKTNV-1">
          <mxGeometry x="-7" y="151" width="120" height="60" as="geometry" />
        </mxCell>
        <mxCell id="42rpb_rlg_OGguBjn2RC-17" value="Fin de Manche" style="whiteSpace=wrap;rounded=1;fontFamily=Verdana;html=1;" vertex="1" parent="WIyWlLk6GJQsqaUBKTNV-1">
          <mxGeometry x="-570" y="740" width="120" height="60" as="geometry" />
        </mxCell>
        <mxCell id="42rpb_rlg_OGguBjn2RC-25" value="" style="edgeStyle=orthogonalEdgeStyle;shape=connector;curved=0;rounded=1;orthogonalLoop=1;jettySize=auto;html=1;strokeColor=default;align=center;verticalAlign=middle;fontFamily=Verdana;fontSize=11;fontColor=default;labelBackgroundColor=default;endArrow=block;endFill=1;exitX=0.5;exitY=1;exitDx=0;exitDy=0;" edge="1" parent="WIyWlLk6GJQsqaUBKTNV-1" source="42rpb_rlg_OGguBjn2RC-67" target="42rpb_rlg_OGguBjn2RC-24">
          <mxGeometry relative="1" as="geometry">
            <Array as="points">
              <mxPoint x="223" y="240" />
              <mxPoint x="130" y="240" />
            </Array>
          </mxGeometry>
        </mxCell>
        <mxCell id="42rpb_rlg_OGguBjn2RC-26" value="&lt;font&gt;&lt;b&gt;HUMAIN&lt;/b&gt;&lt;/font&gt;" style="edgeLabel;html=1;align=center;verticalAlign=middle;resizable=0;points=[];fontFamily=Verdana;fontSize=11;fontColor=default;labelBackgroundColor=default;" connectable="0" vertex="1" parent="42rpb_rlg_OGguBjn2RC-25">
          <mxGeometry x="-0.0571" y="-1" relative="1" as="geometry">
            <mxPoint as="offset" />
          </mxGeometry>
        </mxCell>
        <mxCell id="42rpb_rlg_OGguBjn2RC-28" value="" style="edgeStyle=orthogonalEdgeStyle;shape=connector;curved=0;rounded=1;orthogonalLoop=1;jettySize=auto;html=1;strokeColor=default;align=center;verticalAlign=middle;fontFamily=Verdana;fontSize=11;fontColor=default;labelBackgroundColor=default;endArrow=block;endFill=1;exitX=0.5;exitY=1;exitDx=0;exitDy=0;" edge="1" parent="WIyWlLk6GJQsqaUBKTNV-1" source="42rpb_rlg_OGguBjn2RC-67" target="42rpb_rlg_OGguBjn2RC-27">
          <mxGeometry relative="1" as="geometry">
            <Array as="points">
              <mxPoint x="223" y="240" />
              <mxPoint x="320" y="240" />
            </Array>
          </mxGeometry>
        </mxCell>
        <mxCell id="42rpb_rlg_OGguBjn2RC-29" value="&lt;font&gt;&lt;b&gt;ROBOT&lt;/b&gt;&lt;br&gt;&lt;/font&gt;" style="edgeLabel;html=1;align=center;verticalAlign=middle;resizable=0;points=[];fontFamily=Verdana;fontSize=11;fontColor=default;labelBackgroundColor=default;" connectable="0" vertex="1" parent="42rpb_rlg_OGguBjn2RC-28">
          <mxGeometry x="0.0535" y="-1" relative="1" as="geometry">
            <mxPoint x="-22" y="-1" as="offset" />
          </mxGeometry>
        </mxCell>
        <mxCell id="42rpb_rlg_OGguBjn2RC-31" value="" style="edgeStyle=orthogonalEdgeStyle;shape=connector;curved=0;rounded=1;orthogonalLoop=1;jettySize=auto;strokeColor=default;align=center;verticalAlign=middle;fontFamily=Verdana;fontSize=11;fontColor=default;labelBackgroundColor=default;endArrow=block;endFill=1;html=1;" edge="1" parent="WIyWlLk6GJQsqaUBKTNV-1" source="42rpb_rlg_OGguBjn2RC-24" target="42rpb_rlg_OGguBjn2RC-30">
          <mxGeometry relative="1" as="geometry" />
        </mxCell>
        <mxCell id="42rpb_rlg_OGguBjn2RC-24" value="Afficher menu joueur" style="whiteSpace=wrap;rounded=1;fontFamily=Verdana;html=1;" vertex="1" parent="WIyWlLk6GJQsqaUBKTNV-1">
          <mxGeometry x="70" y="271" width="120" height="60" as="geometry" />
        </mxCell>
        <mxCell id="42rpb_rlg_OGguBjn2RC-37" value="" style="edgeStyle=orthogonalEdgeStyle;shape=connector;curved=0;rounded=1;orthogonalLoop=1;jettySize=auto;strokeColor=default;align=center;verticalAlign=middle;fontFamily=Verdana;fontSize=11;fontColor=default;labelBackgroundColor=default;endArrow=block;endFill=1;entryX=0.5;entryY=0;entryDx=0;entryDy=0;html=1;" edge="1" parent="WIyWlLk6GJQsqaUBKTNV-1" source="42rpb_rlg_OGguBjn2RC-27" target="42rpb_rlg_OGguBjn2RC-36">
          <mxGeometry relative="1" as="geometry">
            <mxPoint x="339" y="380" as="targetPoint" />
          </mxGeometry>
        </mxCell>
        <mxCell id="42rpb_rlg_OGguBjn2RC-27" value="Action IA" style="whiteSpace=wrap;rounded=1;fontFamily=Verdana;html=1;" vertex="1" parent="WIyWlLk6GJQsqaUBKTNV-1">
          <mxGeometry x="260" y="298" width="120" height="60" as="geometry" />
        </mxCell>
        <mxCell id="42rpb_rlg_OGguBjn2RC-33" value="" style="edgeStyle=orthogonalEdgeStyle;shape=connector;curved=0;rounded=1;orthogonalLoop=1;jettySize=auto;strokeColor=default;align=center;verticalAlign=middle;fontFamily=Verdana;fontSize=11;fontColor=default;labelBackgroundColor=default;endArrow=block;endFill=1;html=1;" edge="1" parent="WIyWlLk6GJQsqaUBKTNV-1" source="42rpb_rlg_OGguBjn2RC-30" target="42rpb_rlg_OGguBjn2RC-32">
          <mxGeometry relative="1" as="geometry" />
        </mxCell>
        <mxCell id="42rpb_rlg_OGguBjn2RC-30" value="Action Joueur" style="whiteSpace=wrap;rounded=1;fontFamily=Verdana;html=1;" vertex="1" parent="WIyWlLk6GJQsqaUBKTNV-1">
          <mxGeometry x="70" y="361" width="120" height="60" as="geometry" />
        </mxCell>
        <mxCell id="42rpb_rlg_OGguBjn2RC-35" value="" style="edgeStyle=orthogonalEdgeStyle;shape=connector;curved=0;rounded=1;orthogonalLoop=1;jettySize=auto;strokeColor=default;align=center;verticalAlign=middle;fontFamily=Verdana;fontSize=11;fontColor=default;labelBackgroundColor=default;endArrow=block;endFill=1;entryX=0.5;entryY=0;entryDx=0;entryDy=0;html=1;" edge="1" parent="WIyWlLk6GJQsqaUBKTNV-1" source="42rpb_rlg_OGguBjn2RC-32" target="42rpb_rlg_OGguBjn2RC-79">
          <mxGeometry relative="1" as="geometry">
            <Array as="points">
              <mxPoint x="130" y="540" />
              <mxPoint x="223" y="540" />
            </Array>
          </mxGeometry>
        </mxCell>
        <mxCell id="42rpb_rlg_OGguBjn2RC-32" value="RÃ©soudre Action Joueur" style="whiteSpace=wrap;rounded=1;fontFamily=Verdana;html=1;" vertex="1" parent="WIyWlLk6GJQsqaUBKTNV-1">
          <mxGeometry x="70" y="451" width="120" height="60" as="geometry" />
        </mxCell>
        <mxCell id="42rpb_rlg_OGguBjn2RC-43" value="" style="edgeStyle=orthogonalEdgeStyle;shape=connector;curved=0;rounded=1;orthogonalLoop=1;jettySize=auto;html=1;strokeColor=default;align=center;verticalAlign=middle;fontFamily=Verdana;fontSize=11;fontColor=default;labelBackgroundColor=default;endArrow=block;endFill=1;exitX=1;exitY=0.5;exitDx=0;exitDy=0;" edge="1" parent="WIyWlLk6GJQsqaUBKTNV-1" source="42rpb_rlg_OGguBjn2RC-64" target="42rpb_rlg_OGguBjn2RC-42">
          <mxGeometry relative="1" as="geometry" />
        </mxCell>
        <mxCell id="42rpb_rlg_OGguBjn2RC-44" value="&lt;font&gt;&lt;b&gt;NON&lt;/b&gt;&lt;/font&gt;" style="edgeLabel;html=1;align=center;verticalAlign=middle;resizable=0;points=[];fontFamily=Verdana;fontSize=11;fontColor=default;labelBackgroundColor=default;" connectable="0" vertex="1" parent="42rpb_rlg_OGguBjn2RC-43">
          <mxGeometry x="-0.0011" relative="1" as="geometry">
            <mxPoint x="-3" as="offset" />
          </mxGeometry>
        </mxCell>
        <mxCell id="42rpb_rlg_OGguBjn2RC-47" value="" style="edgeStyle=orthogonalEdgeStyle;shape=connector;curved=0;rounded=1;orthogonalLoop=1;jettySize=auto;html=1;strokeColor=default;align=center;verticalAlign=middle;fontFamily=Verdana;fontSize=11;fontColor=default;labelBackgroundColor=default;endArrow=block;endFill=1;fontStyle=1;exitX=0.5;exitY=1;exitDx=0;exitDy=0;entryX=0.5;entryY=0;entryDx=0;entryDy=0;" edge="1" parent="WIyWlLk6GJQsqaUBKTNV-1" source="42rpb_rlg_OGguBjn2RC-64" target="42rpb_rlg_OGguBjn2RC-46">
          <mxGeometry relative="1" as="geometry">
            <mxPoint x="313" y="816" as="sourcePoint" />
            <mxPoint x="358" y="842" as="targetPoint" />
          </mxGeometry>
        </mxCell>
        <mxCell id="42rpb_rlg_OGguBjn2RC-48" value="OUI" style="edgeLabel;html=1;align=center;verticalAlign=middle;resizable=0;points=[];fontFamily=Verdana;fontSize=11;fontColor=default;labelBackgroundColor=default;fontStyle=1" connectable="0" vertex="1" parent="42rpb_rlg_OGguBjn2RC-47">
          <mxGeometry x="-0.2187" y="4" relative="1" as="geometry">
            <mxPoint x="-4" y="3" as="offset" />
          </mxGeometry>
        </mxCell>
        <mxCell id="42rpb_rlg_OGguBjn2RC-36" value="RÃ©soudre Action IA" style="whiteSpace=wrap;rounded=1;fontFamily=Verdana;html=1;" vertex="1" parent="WIyWlLk6GJQsqaUBKTNV-1">
          <mxGeometry x="260" y="388" width="120" height="60" as="geometry" />
        </mxCell>
        <mxCell id="42rpb_rlg_OGguBjn2RC-45" style="edgeStyle=orthogonalEdgeStyle;shape=connector;curved=0;rounded=1;orthogonalLoop=1;jettySize=auto;html=1;entryX=0.5;entryY=0;entryDx=0;entryDy=0;strokeColor=default;align=center;verticalAlign=middle;fontFamily=Verdana;fontSize=11;fontColor=default;labelBackgroundColor=default;endArrow=block;endFill=1;exitX=1;exitY=0.5;exitDx=0;exitDy=0;" edge="1" parent="WIyWlLk6GJQsqaUBKTNV-1" source="42rpb_rlg_OGguBjn2RC-42" target="42rpb_rlg_OGguBjn2RC-15">
          <mxGeometry relative="1" as="geometry">
            <mxPoint x="619" y="620" as="sourcePoint" />
            <mxPoint x="62.76000000000022" y="151" as="targetPoint" />
            <Array as="points">
              <mxPoint x="568" y="786" />
              <mxPoint x="568" y="100" />
              <mxPoint x="53" y="100" />
            </Array>
          </mxGeometry>
        </mxCell>
        <mxCell id="42rpb_rlg_OGguBjn2RC-42" value="Changer de joueur" style="whiteSpace=wrap;rounded=1;fontFamily=Verdana;html=1;" vertex="1" parent="WIyWlLk6GJQsqaUBKTNV-1">
          <mxGeometry x="420" y="756" width="120" height="60" as="geometry" />
        </mxCell>
        <mxCell id="42rpb_rlg_OGguBjn2RC-53" value="" style="edgeStyle=orthogonalEdgeStyle;shape=connector;curved=0;rounded=1;orthogonalLoop=1;jettySize=auto;html=1;strokeColor=default;align=center;verticalAlign=middle;fontFamily=Verdana;fontSize=11;fontColor=default;labelBackgroundColor=default;endArrow=block;endFill=1;entryX=0.5;entryY=0;entryDx=0;entryDy=0;exitX=0.5;exitY=1;exitDx=0;exitDy=0;" edge="1" parent="WIyWlLk6GJQsqaUBKTNV-1" source="42rpb_rlg_OGguBjn2RC-46" target="42rpb_rlg_OGguBjn2RC-72">
          <mxGeometry relative="1" as="geometry">
            <mxPoint x="348" y="942" as="sourcePoint" />
            <mxPoint x="312.76" y="961" as="targetPoint" />
          </mxGeometry>
        </mxCell>
        <mxCell id="42rpb_rlg_OGguBjn2RC-46" value="Fin du tour de mise" style="whiteSpace=wrap;rounded=1;fontFamily=Verdana;html=1;" vertex="1" parent="WIyWlLk6GJQsqaUBKTNV-1">
          <mxGeometry x="252.76" y="861" width="123" height="60" as="geometry" />
        </mxCell>
        <mxCell id="42rpb_rlg_OGguBjn2RC-56" style="edgeStyle=orthogonalEdgeStyle;shape=connector;curved=0;rounded=1;orthogonalLoop=1;jettySize=auto;html=1;strokeColor=default;align=center;verticalAlign=middle;fontFamily=Verdana;fontSize=11;fontColor=default;labelBackgroundColor=default;endArrow=block;endFill=1;exitX=0.5;exitY=0;exitDx=0;exitDy=0;entryX=1;entryY=0.5;entryDx=0;entryDy=0;" edge="1" parent="WIyWlLk6GJQsqaUBKTNV-1" source="42rpb_rlg_OGguBjn2RC-54" target="42rpb_rlg_OGguBjn2RC-10">
          <mxGeometry relative="1" as="geometry">
            <mxPoint x="427.7600000000007" y="949" as="sourcePoint" />
            <mxPoint x="344" y="40" as="targetPoint" />
            <Array as="points">
              <mxPoint x="624" y="40" />
            </Array>
          </mxGeometry>
        </mxCell>
        <mxCell id="42rpb_rlg_OGguBjn2RC-54" value="Distribuer carte commune" style="whiteSpace=wrap;rounded=1;fontFamily=Verdana;html=1;" vertex="1" parent="WIyWlLk6GJQsqaUBKTNV-1">
          <mxGeometry x="564" y="961" width="120" height="60" as="geometry" />
        </mxCell>
        <mxCell id="42rpb_rlg_OGguBjn2RC-63" value="" style="edgeStyle=orthogonalEdgeStyle;shape=connector;curved=0;rounded=1;orthogonalLoop=1;jettySize=auto;html=1;strokeColor=default;align=center;verticalAlign=middle;fontFamily=Verdana;fontSize=11;fontColor=default;labelBackgroundColor=default;endArrow=block;endFill=1;" edge="1" parent="WIyWlLk6GJQsqaUBKTNV-1" source="42rpb_rlg_OGguBjn2RC-59" target="42rpb_rlg_OGguBjn2RC-62">
          <mxGeometry relative="1" as="geometry" />
        </mxCell>
        <mxCell id="42rpb_rlg_OGguBjn2RC-59" value="&lt;div data-pm-slice=&quot;1 1 []&quot;&gt;&lt;font&gt;&lt;code class=&quot;language-plaintext&quot;&gt;Showdown&lt;/code&gt;&lt;/font&gt;&lt;/div&gt;" style="whiteSpace=wrap;html=1;rounded=1;fontFamily=Verdana;" vertex="1" parent="WIyWlLk6GJQsqaUBKTNV-1">
          <mxGeometry x="-211.74" y="961" width="120" height="60" as="geometry" />
        </mxCell>
        <mxCell id="42rpb_rlg_OGguBjn2RC-75" value="" style="edgeStyle=orthogonalEdgeStyle;shape=connector;curved=0;rounded=1;orthogonalLoop=1;jettySize=auto;html=1;strokeColor=default;align=center;verticalAlign=middle;fontFamily=Verdana;fontSize=11;fontColor=default;labelBackgroundColor=default;endArrow=block;endFill=1;" edge="1" parent="WIyWlLk6GJQsqaUBKTNV-1" source="42rpb_rlg_OGguBjn2RC-62" target="42rpb_rlg_OGguBjn2RC-74">
          <mxGeometry relative="1" as="geometry" />
        </mxCell>
        <mxCell id="42rpb_rlg_OGguBjn2RC-62" value="DÃ©terminer le gagnant" style="whiteSpace=wrap;rounded=1;fontFamily=Verdana;html=1;" vertex="1" parent="WIyWlLk6GJQsqaUBKTNV-1">
          <mxGeometry x="-392" y="961" width="120" height="60" as="geometry" />
        </mxCell>
        <mxCell id="42rpb_rlg_OGguBjn2RC-64" value="VÃ©rifier fin du tour de mise" style="rhombus;whiteSpace=wrap;html=1;fontFamily=Verdana;fontSize=11;fontColor=default;labelBackgroundColor=none;" vertex="1" parent="WIyWlLk6GJQsqaUBKTNV-1">
          <mxGeometry x="272.76" y="756" width="83" height="60" as="geometry" />
        </mxCell>
        <mxCell id="42rpb_rlg_OGguBjn2RC-67" value="Tour du Joueur?" style="rhombus;whiteSpace=wrap;html=1;fontFamily=Verdana;fontSize=11;fontColor=default;labelBackgroundColor=none;" vertex="1" parent="WIyWlLk6GJQsqaUBKTNV-1">
          <mxGeometry x="182.76" y="151" width="80" height="60" as="geometry" />
        </mxCell>
        <mxCell id="42rpb_rlg_OGguBjn2RC-68" value="" style="edgeStyle=orthogonalEdgeStyle;shape=connector;curved=0;rounded=1;orthogonalLoop=1;jettySize=auto;html=1;strokeColor=default;align=center;verticalAlign=middle;fontFamily=Verdana;fontSize=11;fontColor=default;labelBackgroundColor=default;endArrow=block;endFill=1;exitX=1;exitY=0.5;exitDx=0;exitDy=0;entryX=0;entryY=0.5;entryDx=0;entryDy=0;" edge="1" parent="WIyWlLk6GJQsqaUBKTNV-1" source="42rpb_rlg_OGguBjn2RC-72" target="42rpb_rlg_OGguBjn2RC-54">
          <mxGeometry relative="1" as="geometry">
            <mxPoint x="282.76" y="991" as="sourcePoint" />
            <mxPoint x="139" y="1031" as="targetPoint" />
          </mxGeometry>
        </mxCell>
        <mxCell id="42rpb_rlg_OGguBjn2RC-69" value="Moins de 3" style="edgeLabel;html=1;align=center;verticalAlign=middle;resizable=0;points=[];fontFamily=Verdana;fontSize=11;fontColor=default;labelBackgroundColor=default;fontStyle=1" connectable="0" vertex="1" parent="42rpb_rlg_OGguBjn2RC-68">
          <mxGeometry x="0.069" relative="1" as="geometry">
            <mxPoint x="-5" as="offset" />
          </mxGeometry>
        </mxCell>
        <mxCell id="42rpb_rlg_OGguBjn2RC-72" value="VÃ©rifier nombre de tours de mise" style="rhombus;whiteSpace=wrap;html=1;fontFamily=Verdana;fontSize=11;fontColor=default;labelBackgroundColor=none;" vertex="1" parent="WIyWlLk6GJQsqaUBKTNV-1">
          <mxGeometry x="272.76" y="961" width="83" height="60" as="geometry" />
        </mxCell>
        <mxCell id="42rpb_rlg_OGguBjn2RC-77" value="" style="edgeStyle=orthogonalEdgeStyle;shape=connector;curved=0;rounded=1;orthogonalLoop=1;jettySize=auto;strokeColor=default;align=center;verticalAlign=middle;fontFamily=Verdana;fontSize=11;fontColor=default;labelBackgroundColor=default;endArrow=block;endFill=1;html=1;" edge="1" parent="WIyWlLk6GJQsqaUBKTNV-1" source="42rpb_rlg_OGguBjn2RC-74" target="42rpb_rlg_OGguBjn2RC-76">
          <mxGeometry relative="1" as="geometry" />
        </mxCell>
        <mxCell id="42rpb_rlg_OGguBjn2RC-74" value="Distribuer le pot" style="whiteSpace=wrap;rounded=1;fontFamily=Verdana;html=1;" vertex="1" parent="WIyWlLk6GJQsqaUBKTNV-1">
          <mxGeometry x="-570" y="961" width="120" height="60" as="geometry" />
        </mxCell>
        <mxCell id="cqLUIpvBRDK-DoJ2rpOq-13" style="edgeStyle=orthogonalEdgeStyle;shape=connector;curved=0;rounded=1;orthogonalLoop=1;jettySize=auto;html=1;entryX=0.5;entryY=1;entryDx=0;entryDy=0;strokeColor=default;align=center;verticalAlign=middle;fontFamily=Verdana;fontSize=11;fontColor=default;labelBackgroundColor=default;endArrow=block;endFill=1;exitX=0.5;exitY=0;exitDx=0;exitDy=0;" edge="1" parent="WIyWlLk6GJQsqaUBKTNV-1" source="42rpb_rlg_OGguBjn2RC-17" target="cqLUIpvBRDK-DoJ2rpOq-12">
          <mxGeometry relative="1" as="geometry" />
        </mxCell>
        <mxCell id="cqLUIpvBRDK-DoJ2rpOq-14" value="" style="edgeStyle=orthogonalEdgeStyle;shape=connector;curved=0;rounded=1;orthogonalLoop=1;jettySize=auto;html=1;strokeColor=default;align=center;verticalAlign=middle;fontFamily=Verdana;fontSize=11;fontColor=default;labelBackgroundColor=default;endArrow=block;endFill=1;" edge="1" parent="WIyWlLk6GJQsqaUBKTNV-1" source="42rpb_rlg_OGguBjn2RC-76" target="42rpb_rlg_OGguBjn2RC-17">
          <mxGeometry relative="1" as="geometry" />
        </mxCell>
        <mxCell id="42rpb_rlg_OGguBjn2RC-76" value="Remise Ã  zÃ©ro du pot et des mises" style="whiteSpace=wrap;rounded=1;fontFamily=Verdana;html=1;" vertex="1" parent="WIyWlLk6GJQsqaUBKTNV-1">
          <mxGeometry x="-570" y="850" width="120" height="60" as="geometry" />
        </mxCell>
        <mxCell id="42rpb_rlg_OGguBjn2RC-80" value="" style="edgeStyle=orthogonalEdgeStyle;shape=connector;curved=0;rounded=1;orthogonalLoop=1;jettySize=auto;html=1;entryX=0.5;entryY=0;entryDx=0;entryDy=0;strokeColor=default;align=center;verticalAlign=middle;fontFamily=Verdana;fontSize=11;fontColor=default;labelBackgroundColor=default;endArrow=block;endFill=1;" edge="1" parent="WIyWlLk6GJQsqaUBKTNV-1" source="42rpb_rlg_OGguBjn2RC-36" target="42rpb_rlg_OGguBjn2RC-79">
          <mxGeometry relative="1" as="geometry">
            <mxPoint x="320" y="448" as="sourcePoint" />
            <mxPoint x="223" y="641" as="targetPoint" />
            <Array as="points">
              <mxPoint x="320" y="540" />
            </Array>
          </mxGeometry>
        </mxCell>
        <mxCell id="42rpb_rlg_OGguBjn2RC-85" value="" style="edgeStyle=orthogonalEdgeStyle;shape=connector;curved=0;rounded=1;orthogonalLoop=1;jettySize=auto;html=1;strokeColor=default;align=center;verticalAlign=middle;fontFamily=Verdana;fontSize=11;fontColor=default;labelBackgroundColor=default;endArrow=block;endFill=1;entryX=1;entryY=0.5;entryDx=0;entryDy=0;" edge="1" parent="WIyWlLk6GJQsqaUBKTNV-1" source="42rpb_rlg_OGguBjn2RC-79" target="42rpb_rlg_OGguBjn2RC-84">
          <mxGeometry relative="1" as="geometry">
            <Array as="points">
              <mxPoint x="58" y="626" />
              <mxPoint x="58" y="626" />
            </Array>
          </mxGeometry>
        </mxCell>
        <mxCell id="42rpb_rlg_OGguBjn2RC-86" value="&lt;div&gt;&lt;font&gt;&lt;b&gt;Jetons =&amp;lt; 20&lt;/b&gt;&lt;/font&gt;&lt;/div&gt;&lt;div&gt;&lt;font&gt;&lt;b&gt;et&lt;/b&gt;&lt;/font&gt;&lt;/div&gt;&lt;div&gt;&lt;font&gt;&lt;b&gt;Habit = 1&lt;br&gt;&lt;/b&gt;&lt;/font&gt;&lt;/div&gt;&lt;div&gt;&lt;font&gt;&lt;b&gt;&lt;br&gt;&lt;/b&gt;&lt;/font&gt;&lt;/div&gt;" style="edgeLabel;html=1;align=center;verticalAlign=middle;resizable=0;points=[];fontFamily=Verdana;fontSize=11;fontColor=default;labelBackgroundColor=default;" connectable="0" vertex="1" parent="42rpb_rlg_OGguBjn2RC-85">
          <mxGeometry x="0.0237" y="2" relative="1" as="geometry">
            <mxPoint as="offset" />
          </mxGeometry>
        </mxCell>
        <mxCell id="42rpb_rlg_OGguBjn2RC-89" style="edgeStyle=orthogonalEdgeStyle;shape=connector;curved=0;rounded=1;orthogonalLoop=1;jettySize=auto;html=1;entryX=1;entryY=0.5;entryDx=0;entryDy=0;strokeColor=default;align=center;verticalAlign=middle;fontFamily=Verdana;fontSize=11;fontColor=default;labelBackgroundColor=default;endArrow=block;endFill=1;exitX=0;exitY=1;exitDx=0;exitDy=0;" edge="1" parent="WIyWlLk6GJQsqaUBKTNV-1" source="42rpb_rlg_OGguBjn2RC-79" target="42rpb_rlg_OGguBjn2RC-95">
          <mxGeometry relative="1" as="geometry">
            <mxPoint x="62.75999999999999" y="702" as="targetPoint" />
            <Array as="points">
              <mxPoint x="203" y="726" />
            </Array>
            <mxPoint x="222.76" y="688" as="sourcePoint" />
          </mxGeometry>
        </mxCell>
        <mxCell id="42rpb_rlg_OGguBjn2RC-90" value="&lt;div&gt;&lt;font&gt;&lt;b&gt;Habit &amp;gt; 1&lt;/b&gt;&lt;/font&gt;&lt;/div&gt;&lt;div&gt;&lt;font&gt;&lt;b&gt;et&lt;/b&gt;&lt;/font&gt;&lt;/div&gt;&lt;div&gt;&lt;font&gt;&lt;b&gt;Jetons =&amp;lt; 0&lt;br&gt;&lt;/b&gt;&lt;/font&gt;&lt;/div&gt;" style="edgeLabel;html=1;align=center;verticalAlign=middle;resizable=0;points=[];fontFamily=Verdana;fontSize=11;fontColor=default;labelBackgroundColor=default;" connectable="0" vertex="1" parent="42rpb_rlg_OGguBjn2RC-89">
          <mxGeometry x="-0.0046" y="-1" relative="1" as="geometry">
            <mxPoint x="-33" y="1" as="offset" />
          </mxGeometry>
        </mxCell>
        <mxCell id="42rpb_rlg_OGguBjn2RC-97" value="" style="edgeStyle=orthogonalEdgeStyle;shape=connector;curved=0;rounded=1;orthogonalLoop=1;jettySize=auto;html=1;strokeColor=default;align=center;verticalAlign=middle;fontFamily=Verdana;fontSize=11;fontColor=default;labelBackgroundColor=default;endArrow=block;endFill=1;" edge="1" parent="WIyWlLk6GJQsqaUBKTNV-1" source="42rpb_rlg_OGguBjn2RC-79" target="42rpb_rlg_OGguBjn2RC-96">
          <mxGeometry relative="1" as="geometry" />
        </mxCell>
        <mxCell id="42rpb_rlg_OGguBjn2RC-98" value="&lt;div&gt;&lt;font&gt;&lt;b&gt;Habit &amp;lt; 5&lt;br&gt;&lt;/b&gt;&lt;/font&gt;&lt;/div&gt;&lt;div&gt;&lt;font&gt;&lt;b&gt;et&lt;/b&gt;&lt;/font&gt;&lt;/div&gt;&lt;div&gt;&lt;font&gt;&lt;b&gt;Jetons &amp;gt;= 110&lt;br&gt;&lt;/b&gt;&lt;/font&gt;&lt;/div&gt;" style="edgeLabel;html=1;align=center;verticalAlign=middle;resizable=0;points=[];fontFamily=Verdana;fontSize=11;fontColor=default;labelBackgroundColor=default;" connectable="0" vertex="1" parent="42rpb_rlg_OGguBjn2RC-97">
          <mxGeometry x="0.1129" y="-2" relative="1" as="geometry">
            <mxPoint x="-13" y="-2" as="offset" />
          </mxGeometry>
        </mxCell>
        <mxCell id="cqLUIpvBRDK-DoJ2rpOq-9" style="edgeStyle=orthogonalEdgeStyle;shape=connector;curved=0;rounded=1;orthogonalLoop=1;jettySize=auto;html=1;entryX=0.5;entryY=0;entryDx=0;entryDy=0;strokeColor=default;align=center;verticalAlign=middle;fontFamily=Verdana;fontSize=11;fontColor=default;labelBackgroundColor=default;endArrow=block;endFill=1;exitX=1;exitY=1;exitDx=0;exitDy=0;" edge="1" parent="WIyWlLk6GJQsqaUBKTNV-1">
          <mxGeometry relative="1" as="geometry">
            <mxPoint x="243" y="641" as="sourcePoint" />
            <mxPoint x="314.4999999999998" y="756" as="targetPoint" />
            <Array as="points">
              <mxPoint x="243.24" y="700" />
              <mxPoint x="314.24" y="700" />
            </Array>
          </mxGeometry>
        </mxCell>
        <mxCell id="cqLUIpvBRDK-DoJ2rpOq-10" value="&lt;b&gt;Autres&lt;/b&gt;" style="edgeLabel;html=1;align=center;verticalAlign=middle;resizable=0;points=[];fontFamily=Verdana;fontSize=11;fontColor=default;labelBackgroundColor=default;" connectable="0" vertex="1" parent="cqLUIpvBRDK-DoJ2rpOq-9">
          <mxGeometry x="-0.1905" relative="1" as="geometry">
            <mxPoint x="-7" y="-4" as="offset" />
          </mxGeometry>
        </mxCell>
        <mxCell id="42rpb_rlg_OGguBjn2RC-79" value="VÃ©rifier Habit et Jetons joueur" style="rhombus;whiteSpace=wrap;fontFamily=Verdana;fontSize=11;fontColor=default;labelBackgroundColor=none;html=1;" vertex="1" parent="WIyWlLk6GJQsqaUBKTNV-1">
          <mxGeometry x="182.76" y="596" width="80" height="60" as="geometry" />
        </mxCell>
        <mxCell id="cqLUIpvBRDK-DoJ2rpOq-5" style="edgeStyle=orthogonalEdgeStyle;shape=connector;curved=0;rounded=1;orthogonalLoop=1;jettySize=auto;html=1;entryX=0.5;entryY=0;entryDx=0;entryDy=0;strokeColor=default;align=center;verticalAlign=middle;fontFamily=Verdana;fontSize=11;fontColor=default;labelBackgroundColor=default;endArrow=block;endFill=1;exitX=0;exitY=0.5;exitDx=0;exitDy=0;" edge="1" parent="WIyWlLk6GJQsqaUBKTNV-1" source="42rpb_rlg_OGguBjn2RC-84" target="cqLUIpvBRDK-DoJ2rpOq-3">
          <mxGeometry relative="1" as="geometry" />
        </mxCell>
        <mxCell id="42rpb_rlg_OGguBjn2RC-84" value="All-In" style="rounded=1;whiteSpace=wrap;fontSize=11;labelBackgroundColor=none;fontFamily=Verdana;html=1;" vertex="1" parent="WIyWlLk6GJQsqaUBKTNV-1">
          <mxGeometry x="-78.5" y="596" width="120" height="60" as="geometry" />
        </mxCell>
        <mxCell id="42rpb_rlg_OGguBjn2RC-100" style="edgeStyle=orthogonalEdgeStyle;shape=connector;curved=0;rounded=1;orthogonalLoop=1;jettySize=auto;html=1;entryX=0;entryY=0.5;entryDx=0;entryDy=0;strokeColor=default;align=center;verticalAlign=middle;fontFamily=Verdana;fontSize=11;fontColor=default;labelBackgroundColor=default;endArrow=block;endFill=1;exitX=0.5;exitY=1;exitDx=0;exitDy=0;" edge="1" parent="WIyWlLk6GJQsqaUBKTNV-1" source="42rpb_rlg_OGguBjn2RC-95" target="42rpb_rlg_OGguBjn2RC-64">
          <mxGeometry relative="1" as="geometry" />
        </mxCell>
        <mxCell id="42rpb_rlg_OGguBjn2RC-95" value="Perte d&amp;#39;un Habit et recharge Ã  100 Jetons" style="rounded=1;whiteSpace=wrap;fontSize=11;labelBackgroundColor=none;fontFamily=Verdana;html=1;" vertex="1" parent="WIyWlLk6GJQsqaUBKTNV-1">
          <mxGeometry x="-7" y="696" width="120" height="60" as="geometry" />
        </mxCell>
        <mxCell id="42rpb_rlg_OGguBjn2RC-99" style="edgeStyle=orthogonalEdgeStyle;shape=connector;curved=0;rounded=1;orthogonalLoop=1;jettySize=auto;html=1;entryX=0.5;entryY=0;entryDx=0;entryDy=0;strokeColor=default;align=center;verticalAlign=middle;fontFamily=Verdana;fontSize=11;fontColor=default;labelBackgroundColor=default;endArrow=block;endFill=1;exitX=0.5;exitY=1;exitDx=0;exitDy=0;" edge="1" parent="WIyWlLk6GJQsqaUBKTNV-1" source="42rpb_rlg_OGguBjn2RC-96" target="42rpb_rlg_OGguBjn2RC-64">
          <mxGeometry relative="1" as="geometry">
            <mxPoint x="467.0000000000002" y="688" as="sourcePoint" />
            <Array as="points">
              <mxPoint x="467" y="700" />
              <mxPoint x="314" y="700" />
            </Array>
          </mxGeometry>
        </mxCell>
        <mxCell id="42rpb_rlg_OGguBjn2RC-96" value="Achat d&amp;#39;un habit et perte de 100 jetons" style="rounded=1;whiteSpace=wrap;fontSize=11;labelBackgroundColor=none;fontFamily=Verdana;html=1;" vertex="1" parent="WIyWlLk6GJQsqaUBKTNV-1">
          <mxGeometry x="407" y="596" width="120" height="60" as="geometry" />
        </mxCell>
        <mxCell id="cqLUIpvBRDK-DoJ2rpOq-7" style="edgeStyle=orthogonalEdgeStyle;shape=connector;curved=0;rounded=1;orthogonalLoop=1;jettySize=auto;html=1;entryX=0;entryY=0.5;entryDx=0;entryDy=0;strokeColor=default;align=center;verticalAlign=middle;fontFamily=Verdana;fontSize=11;fontColor=default;labelBackgroundColor=default;endArrow=block;endFill=1;" edge="1" parent="WIyWlLk6GJQsqaUBKTNV-1" source="42rpb_rlg_OGguBjn2RC-102" target="42rpb_rlg_OGguBjn2RC-46">
          <mxGeometry relative="1" as="geometry">
            <Array as="points">
              <mxPoint x="-192" y="891" />
            </Array>
          </mxGeometry>
        </mxCell>
        <mxCell id="cqLUIpvBRDK-DoJ2rpOq-8" value="&lt;b&gt;OUI&lt;/b&gt;" style="edgeLabel;html=1;align=center;verticalAlign=middle;resizable=0;points=[];fontFamily=Verdana;fontSize=11;fontColor=default;labelBackgroundColor=default;" connectable="0" vertex="1" parent="cqLUIpvBRDK-DoJ2rpOq-7">
          <mxGeometry x="-0.7462" y="2" relative="1" as="geometry">
            <mxPoint x="-2" y="-14" as="offset" />
          </mxGeometry>
        </mxCell>
        <mxCell id="42rpb_rlg_OGguBjn2RC-102" value="Un joueur a fait All-In" style="rhombus;whiteSpace=wrap;html=1;fontFamily=Verdana;fontSize=11;fontColor=default;labelBackgroundColor=none;" vertex="1" parent="WIyWlLk6GJQsqaUBKTNV-1">
          <mxGeometry x="-232" y="151" width="80" height="60" as="geometry" />
        </mxCell>
        <mxCell id="cqLUIpvBRDK-DoJ2rpOq-6" style="edgeStyle=orthogonalEdgeStyle;shape=connector;curved=0;rounded=1;orthogonalLoop=1;jettySize=auto;html=1;entryX=0;entryY=0.5;entryDx=0;entryDy=0;strokeColor=default;align=center;verticalAlign=middle;fontFamily=Verdana;fontSize=11;fontColor=default;labelBackgroundColor=default;endArrow=block;endFill=1;" edge="1" parent="WIyWlLk6GJQsqaUBKTNV-1" source="cqLUIpvBRDK-DoJ2rpOq-3" target="42rpb_rlg_OGguBjn2RC-46">
          <mxGeometry relative="1" as="geometry">
            <Array as="points">
              <mxPoint x="-107" y="891" />
            </Array>
          </mxGeometry>
        </mxCell>
        <mxCell id="cqLUIpvBRDK-DoJ2rpOq-3" value="Second joueur s&amp;#39;aligne sur la mise" style="rounded=1;whiteSpace=wrap;fontSize=11;labelBackgroundColor=none;fontFamily=Verdana;html=1;" vertex="1" parent="WIyWlLk6GJQsqaUBKTNV-1">
          <mxGeometry x="-167" y="696" width="120" height="60" as="geometry" />
        </mxCell>
        <mxCell id="42rpb_rlg_OGguBjn2RC-60" value="" style="edgeStyle=orthogonalEdgeStyle;shape=connector;curved=0;rounded=1;orthogonalLoop=1;jettySize=auto;html=1;strokeColor=default;align=center;verticalAlign=middle;fontFamily=Verdana;fontSize=11;fontColor=default;labelBackgroundColor=default;endArrow=block;endFill=1;exitX=0;exitY=0.5;exitDx=0;exitDy=0;" edge="1" parent="WIyWlLk6GJQsqaUBKTNV-1" source="42rpb_rlg_OGguBjn2RC-72" target="42rpb_rlg_OGguBjn2RC-59">
          <mxGeometry relative="1" as="geometry">
            <mxPoint x="-52" y="959" as="sourcePoint" />
          </mxGeometry>
        </mxCell>
        <mxCell id="42rpb_rlg_OGguBjn2RC-61" value="Sinon" style="edgeLabel;html=1;align=center;verticalAlign=middle;resizable=0;points=[];fontFamily=Verdana;fontSize=11;fontColor=default;labelBackgroundColor=default;fontStyle=1" connectable="0" vertex="1" parent="42rpb_rlg_OGguBjn2RC-60">
          <mxGeometry x="0.069" relative="1" as="geometry">
            <mxPoint x="47" as="offset" />
          </mxGeometry>
        </mxCell>
        <mxCell id="cqLUIpvBRDK-DoJ2rpOq-16" value="" style="edgeStyle=orthogonalEdgeStyle;shape=connector;curved=0;rounded=1;orthogonalLoop=1;jettySize=auto;html=1;strokeColor=default;align=center;verticalAlign=middle;fontFamily=Verdana;fontSize=11;fontColor=default;labelBackgroundColor=default;endArrow=block;endFill=1;" edge="1" parent="WIyWlLk6GJQsqaUBKTNV-1" source="cqLUIpvBRDK-DoJ2rpOq-12" target="cqLUIpvBRDK-DoJ2rpOq-15">
          <mxGeometry relative="1" as="geometry" />
        </mxCell>
        <mxCell id="cqLUIpvBRDK-DoJ2rpOq-20" value="OUI" style="edgeLabel;html=1;align=center;verticalAlign=middle;resizable=0;points=[];fontFamily=Verdana;fontSize=11;fontColor=default;labelBackgroundColor=default;fontStyle=1" connectable="0" vertex="1" parent="cqLUIpvBRDK-DoJ2rpOq-16">
          <mxGeometry x="-0.6571" y="-4" relative="1" as="geometry">
            <mxPoint x="-10" y="4" as="offset" />
          </mxGeometry>
        </mxCell>
        <mxCell id="cqLUIpvBRDK-DoJ2rpOq-12" value="VÃ©rifier si un joueur a 0 jeton et Habit =&lt; 1" style="rhombus;whiteSpace=wrap;fontFamily=Verdana;fontSize=11;fontColor=default;labelBackgroundColor=none;" vertex="1" parent="WIyWlLk6GJQsqaUBKTNV-1">
          <mxGeometry x="-551.5" y="630" width="83" height="60" as="geometry" />
        </mxCell>
        <mxCell id="cqLUIpvBRDK-DoJ2rpOq-18" value="" style="edgeStyle=orthogonalEdgeStyle;shape=connector;curved=0;rounded=1;orthogonalLoop=1;jettySize=auto;html=1;strokeColor=default;align=center;verticalAlign=middle;fontFamily=Verdana;fontSize=11;fontColor=default;labelBackgroundColor=default;endArrow=block;endFill=1;entryX=1;entryY=0.5;entryDx=0;entryDy=0;" edge="1" parent="WIyWlLk6GJQsqaUBKTNV-1" source="cqLUIpvBRDK-DoJ2rpOq-15" target="cqLUIpvBRDK-DoJ2rpOq-19">
          <mxGeometry relative="1" as="geometry">
            <mxPoint x="-830" y="660" as="targetPoint" />
          </mxGeometry>
        </mxCell>
        <mxCell id="cqLUIpvBRDK-DoJ2rpOq-15" value="&lt;div&gt;Fin de Partie&lt;/div&gt;" style="whiteSpace=wrap;rounded=1;fontFamily=Verdana;html=1;" vertex="1" parent="WIyWlLk6GJQsqaUBKTNV-1">
          <mxGeometry x="-730" y="630" width="120" height="60" as="geometry" />
        </mxCell>
        <mxCell id="cqLUIpvBRDK-DoJ2rpOq-19" value="Fin" style="ellipse;whiteSpace=wrap;html=1;aspect=fixed;fontFamily=Verdana;strokeWidth=5;" vertex="1" parent="WIyWlLk6GJQsqaUBKTNV-1">
          <mxGeometry x="-810" y="640" width="40" height="40" as="geometry" />
        </mxCell>
      </root>
    </mxGraphModel>
  </diagram>
</mxfile>
